<?xml version="1.0" standalone="no"?>
<!DOCTYPE svg PUBLIC "-//W3C//DTD SVG 20010904//EN"
 "http://www.w3.org/TR/2001/REC-SVG-20010904/DTD/svg10.dtd">
<svg version="1.0" xmlns="http://www.w3.org/2000/svg"
 width="2560.000000pt" height="2560.000000pt" viewBox="0 0 2560.000000 2560.000000"
 preserveAspectRatio="xMidYMid meet">
<metadata>
Created by potrace 1.14, written by Peter Selinger 2001-2017
</metadata>
<g transform="translate(0.000000,2560.000000) scale(0.100000,-0.100000)"
fill="#000000" stroke="none">
<path d="M865 22379 c-411 -85 -720 -376 -833 -785 l-27 -99 -2 -8665 c-1
-7407 1 -8676 13 -8743 80 -444 427 -792 869 -871 69 -12 1708 -14 11915 -15
7705 0 11852 3 11885 10 28 5 64 12 80 15 17 3 64 16 105 30 373 125 637 434
714 834 22 111 22 17303 0 17425 -77 440 -427 789 -871 869 -67 12 -1792 14
-11918 14 -11517 0 -11842 0 -11930 -19z"/>
</g>
</svg>
